<svg xmlns="http://www.w3.org/2000/svg" xmlns:xlink="http://www.w3.org/1999/xlink" version="1.1" x="0px" y="0px" viewBox="0 0 100 100" enable-background="new 0 0 100 100" xml:space="preserve"><g><path d="M91.3,5H8.7C6.7,5,5,6.8,5,8.9v82.2C5,93.2,6.7,95,8.7,95h16.6c1.1,0,2-0.5,2.7-1.3c0.7,0.8,1.6,1.3,2.7,1.3h16.6   c1.1,0,2-0.5,2.7-1.3c0.7,0.8,1.6,1.3,2.7,1.3h16.6c1.1,0,2-0.5,2.7-1.3c0.7,0.8,1.6,1.3,2.7,1.3h16.6c2,0,3.7-1.8,3.7-3.9V8.9   C95,6.8,93.3,5,91.3,5z M25.3,93.2H8.7c-0.9,0-1.7-0.9-1.7-2.1V8.9c0-1.1,0.8-2.1,1.7-2.1H22c0,0,0,0,0,0v50.3c0,1,0.9,1.9,2,1.9h3   c0,0,0,32.2,0,32.3C26.9,92.3,26.2,93.2,25.3,93.2z M47.3,93.2H30.7c-0.9,0-1.6-0.8-1.7-1.9c0-0.1,0-32.3,0-32.3h3   c1.1,0,2-0.8,2-1.9V6.9c0,0,0,0,0,0h10c0,0,0,0,0,0v50.3c0,1,0.9,1.9,2,1.9h3c0,0,0,32.2,0,32.3C48.9,92.3,48.2,93.2,47.3,93.2z    M69.3,93.2H52.7c-0.9,0-1.6-0.8-1.7-1.9c0-0.1,0-32.3,0-32.3h3c1.1,0,2-0.8,2-1.9V6.9c0,0,0,0,0,0h10c0,0,0,0,0,0v50.3   c0,1,1.1,1.9,2.2,1.9H71c0,0,0,32.2,0,32.3C70.9,92.3,70.2,93.2,69.3,93.2z M93,91.1c0,1.1-0.8,2.1-1.7,2.1H74.7   c-0.9,0-1.6-0.8-1.7-1.9c0-0.1,0-32.3,0-32.3h3c1.1,0,2-0.8,2-1.9V6.9c0,0,0,0,0,0h13.3c0.9,0,1.7,0.9,1.7,2.1V91.1z"></path></g></svg>