<svg xmlns="http://www.w3.org/2000/svg" xmlns:xlink="http://www.w3.org/1999/xlink" version="1.1" x="0px" y="0px" viewBox="0 0 90 90" enable-background="new 0 0 90 90" xml:space="preserve"><path d="M81.478,50.612c0.973-3.355,1.497-6.899,1.497-10.564c0-3.616-0.51-7.114-1.458-10.43c0.335-0.252,0.556-0.65,0.556-1.101  c0-0.755-0.606-1.366-1.359-1.378c-2.438-6.727-6.726-12.576-12.247-16.927c0.119-0.203,0.191-0.437,0.191-0.688  c0-0.762-0.618-1.38-1.38-1.38c-0.404,0-0.765,0.177-1.017,0.454C60.503,4.693,53.62,2.327,46.208,2.094  c-0.178-0.556-0.692-0.96-1.308-0.96c-0.616,0-1.133,0.409-1.31,0.968C36.312,2.368,29.552,4.69,23.872,8.508  c-0.245-0.224-0.567-0.363-0.926-0.363c-0.763,0-1.379,0.618-1.379,1.38c0,0.202,0.045,0.392,0.123,0.564  c-5.602,4.368-9.95,10.269-12.412,17.066c-0.056-0.007-0.11-0.017-0.168-0.017c-0.763,0-1.38,0.617-1.38,1.379  c0,0.522,0.293,0.971,0.721,1.206c-0.93,3.285-1.427,6.748-1.427,10.325c0,3.63,0.513,7.142,1.468,10.469  c-0.45,0.228-0.762,0.688-0.762,1.228c0,0.762,0.617,1.38,1.38,1.38c0.076,0,0.151-0.011,0.226-0.023  c2.467,6.718,6.78,12.55,12.321,16.881c-0.055,0.15-0.09,0.311-0.09,0.48c0,0.762,0.616,1.38,1.38,1.38  c0.323,0,0.616-0.116,0.852-0.303c0.357,0.241,0.719,0.477,1.084,0.706c-3.649,5.134-6.348,8.93-6.384,8.979  c-0.181,0.255-0.399,1.105,0.75,1.922c1.148,0.814,1.879,0.327,2.06,0.072c0.035-0.051,2.801-4.01,6.508-9.316  c2.914,1.484,6.043,2.604,9.328,3.297c0.531,6.028,0.92,10.437,0.925,10.495c0.029,0.311,0.419,1.098,1.821,0.964  c1.403-0.135,1.638-0.98,1.607-1.293c-0.005-0.055-0.389-4.036-0.926-9.605c0.979,0.113,1.97,0.194,2.971,0.231  c0.102,0.661,0.669,1.168,1.357,1.168c0.688,0,1.253-0.503,1.358-1.159c7.418-0.244,14.306-2.624,20.063-6.546  c0.248,0.239,0.584,0.388,0.955,0.388c0.762,0,1.38-0.618,1.38-1.38c0-0.222-0.057-0.427-0.149-0.612  c5.456-4.312,9.704-10.089,12.146-16.729c0.013,0,0.025,0.004,0.039,0.004c0.761,0,1.38-0.618,1.38-1.38  C82.073,51.275,81.836,50.861,81.478,50.612z M29.463,71.546c2.026-2.899,4.233-6.061,6.379-9.134  c0.352,3.99,0.713,8.098,1.041,11.815C34.286,73.61,31.802,72.705,29.463,71.546z M44.999,75.176c-1.597,0-3.166-0.109-4.706-0.316  c-0.494-5.122-1.072-11.107-1.597-16.532v-0.001c0.003-0.004,0.006-0.007,0.008-0.01c4.457-6.384,8.097-11.601,8.399-12.044  c3.422-5.195,7.311-11.737,7.862-12.79c1.545-0.155,1.5-2.143,1.065-2.448c-0.428-0.306-2.321,0.417-1.955,1.816  c-0.81,0.87-5.687,6.711-9.448,11.661c-0.366,0.498-2.971,4.15-6.402,8.977c-0.569-5.895-1.006-10.359-1.075-10.973  c-0.794-6.167-2.109-13.662-2.378-14.819c1.015-1.029-0.267-2.601-0.79-2.549c-0.528,0.048-1.559,1.75-0.297,2.654  c-0.047,1.188,0.064,8.796,0.44,15.005c0.042,0.536,0.596,6.872,1.278,14.628c0,0.004,0,0.009,0.001,0.013c0,0,0,0-0.001,0  c-2.895,4.071-6.063,8.527-8.868,12.472C16.542,63.72,9.872,52.649,9.872,40.048c0-19.369,15.758-35.127,35.127-35.127  s35.126,15.758,35.126,35.127S64.368,75.176,44.999,75.176z"></path></svg>