<?xml version="1.0" encoding="utf-8"?><!DOCTYPE svg PUBLIC "-//W3C//DTD SVG 1.1//EN" "http://www.w3.org/Graphics/SVG/1.1/DTD/svg11.dtd"><svg version="1.1" xmlns:rdf="http://www.w3.org/1999/02/22-rdf-syntax-ns#" xmlns:cc="http://creativecommons.org/ns#" xmlns:dc="http://purl.org/dc/elements/1.1/" xmlns:svg="http://www.w3.org/2000/svg" xmlns:inkscape="http://www.inkscape.org/namespaces/inkscape" xmlns:sodipodi="http://sodipodi.sourceforge.net/DTD/sodipodi-0.dtd" xmlns="http://www.w3.org/2000/svg" xmlns:xlink="http://www.w3.org/1999/xlink" x="0px" y="0px" viewBox="19.771 0.093 59.657 100" enable-background="new 19.771 0.093 59.657 100" xml:space="preserve"><g><path d="M38.383,0.094c-3.851-0.062-8.056,2.309-9.395,6.619c-0.062,0.203-1.053,3.129-1.104,3.345h-8.114
		c3.251,2.168,4.331,2.74,7.58,2.74c0.542,0,2.732-0.012,3.274-1.637c0.164-0.492,1.274-3.719,1.495-4.164
		c0.964-1.94,2.445-3.38,4.271-3.38c2.247,0,2.351,2.154,2.171,4.341l-5.943,72.633c-0.817,9.953,7.037,19.501,19.501,19.501
		c7.081,0,11.602-2.277,13.879-9.109c2.278-6.833-1.167-19.493,7.26-22.313l-17.899-17.9c-6.355,6.086-5.582,19.058-4.342,27.117
		c0.249,1.617,0.032,6.478-2.135,6.478c-2.168,0-3.055-3.959-3.061-5.801L45.607,7.959C45.722,2.637,42.234,0.157,38.383,0.094z
		 M40.945,39.133c1.347,0,2.456,1.073,2.456,2.42c0,1.347-1.109,2.455-2.456,2.455s-2.42-1.108-2.42-2.455
		C38.525,40.206,39.599,39.133,40.945,39.133z M40.589,48.599c1.347,0,2.42,1.109,2.42,2.456s-1.073,2.42-2.42,2.42
		s-2.456-1.073-2.456-2.42S39.243,48.599,40.589,48.599z M40.198,58.101c1.347,0,2.419,1.073,2.419,2.42s-1.073,2.456-2.419,2.456
		c-1.347,0-2.456-1.109-2.456-2.456S38.851,58.101,40.198,58.101z"></path><path d="M78.59,68.931l0.459-0.46c0.506-0.506,0.506-1.333,0-1.838L56.746,44.329c-0.505-0.506-1.334-0.506-1.84,0
		l-0.46,0.46c-0.505,0.506-0.505,1.333,0,1.839L76.75,68.931C77.255,69.438,78.083,69.438,78.59,68.931z"></path></g></svg>