<svg xmlns="http://www.w3.org/2000/svg" xmlns:xlink="http://www.w3.org/1999/xlink" version="1.1" x="0px" y="0px" viewBox="0 0 100 100" enable-background="new 0 0 100 100" xml:space="preserve"><path fill="#000000" d="M89.4,73.6c-0.4-1.1-1.5-1.9-2.7-1.9h-1.9c-0.4,0-0.7-0.3-0.7-0.7V45.6c0-1.5-1.2-2.7-2.7-2.7H18.5  c-1.5,0-2.7,1.2-2.7,2.7V71c0,0.4-0.3,0.7-0.7,0.7h-1.7c-1.2,0-2.2,0.7-2.6,1.8l-1.2,2.9c-0.8,1.9,0.6,3.9,2.6,3.9h75.5  c2,0,3.4-2,2.7-3.9L89.4,73.6z M36.8,65.1c0,1.9-1.5,3.4-3.4,3.4H22.5c-1.9,0-3.4-1.5-3.4-3.4V54.2c0-1.9,1.5-3.4,3.4-3.4h10.9  c1.9,0,3.4,1.5,3.4,3.4V65.1z M59.1,73.9c0,0.9-0.7,1.6-1.6,1.6h-15c-0.9,0-1.6-0.7-1.6-1.6V57.9c0-5,4.1-9.1,9.1-9.1  s9.1,4.1,9.1,9.1V73.9z M80.8,65.1c0,1.9-1.5,3.4-3.4,3.4H66.6c-1.9,0-3.4-1.5-3.4-3.4V54.2c0-1.9,1.5-3.4,3.4-3.4h10.9  c1.9,0,3.4,1.5,3.4,3.4V65.1z"></path><path fill="#000000" d="M98,33L85.4,20.9c-0.8-0.8-2-1.3-3.1-1.3H17.7c-1.2,0-2.3,0.5-3.1,1.3L2,33.1c-0.9,0.9-1.4,2-1.4,3.3  c0,2.5,2,4.5,4.5,4.5h89.7c2.5,0,4.5-2,4.5-4.5v-0.1C99.4,35,98.9,33.8,98,33z"></path></svg>