<svg xmlns="http://www.w3.org/2000/svg" xmlns:xlink="http://www.w3.org/1999/xlink" version="1.1" x="0px" y="0px" viewBox="0 0 100 100" enable-background="new 0 0 100 100" xml:space="preserve"><g><path fill="#000000" d="M43.806,61.947c1.18,0,2.359-0.441,3.269-1.324c0.855-0.811,1.378-1.908,1.459-3.078v-0.02   c0.01-0.099,0.01-0.197,0.01-0.297c0-1.234-0.478-2.413-1.324-3.295c-0.873-0.91-2.035-1.423-3.277-1.441   c-1.279-0.036-2.513,0.441-3.422,1.314s-1.423,2.053-1.45,3.314v0.099c0,1.233,0.469,2.387,1.323,3.277   C41.32,61.461,42.563,61.947,43.806,61.947z"></path><path fill="#000000" d="M20.046,83.77l0.79,0.83c4.65,4.851,10.23,7.7,15.3,7.811h0.311c3.739,0,7.14-1.44,10.1-4.28   c0.44-0.42,0.87-0.9,1.311-1.44c1.13-1.27,1.949-2.739,2.579-4.609c0.211-0.601,0.37-1.15,0.48-1.681   c0.31-1.21,0.53-2.479,0.76-3.71c0.53-2.979,1.09-6.05,2.7-8.88c1.05-1.84,2.57-2.899,4.19-4.029   c0.739-0.511,1.51-1.051,2.25-1.681c2.47-2.08,3.8-5.38,3.39-8.39c-0.42-3.18-2.72-5.8-4.94-8.021L65.796,38l13.68-16.12   c0.521-0.06,1.021-0.31,1.29-0.66c0.48-0.56,0.99-1.11,1.511-1.649l0.18,0.159c-0.29,0.36-0.4,0.71-0.04,1.061   c0.43,0.42,0.96,0.24,1.38-0.21c0.43-0.44,0.601-0.96,0.15-1.391c-0.38-0.369-0.74-0.199-1.11,0.141l-0.17-0.17l0.02-0.021   c0.521-0.54,1.051-1.09,1.601-1.62l0.2,0.181c-0.271,0.319-0.37,0.649-0.051,0.989c0.421,0.45,0.95,0.29,1.4-0.13   c0.44-0.42,0.63-0.939,0.21-1.39c-0.37-0.39-0.76-0.22-1.149,0.12l-0.19-0.17l0.01-0.011c0.58-0.569,1.17-1.109,1.771-1.659   l0.26,0.25c-0.25,0.35-0.33,0.689,0.03,1.01c0.449,0.399,0.97,0.189,1.37-0.26c0.409-0.46,0.55-1,0.1-1.4   c-0.4-0.36-0.76-0.17-1.12,0.19l-0.2-0.19c0.57-0.5,1.141-1.01,1.7-1.47c0.57-0.42,0.82-1.29,0.57-1.94l-0.08-0.13   c-1.28-1.63-2.681-2.85-4.38-3.82l-0.13-0.06c-0.7-0.16-1.53,0.15-1.86,0.68l-1.3,1.74l-0.28-0.26c0.3-0.38,0.42-0.74,0.04-1.09   c-0.45-0.41-0.96-0.21-1.38,0.25c-0.41,0.449-0.561,0.979-0.101,1.39c0.37,0.34,0.71,0.2,1.04-0.11l0.32,0.301   c-0.479,0.64-0.97,1.27-1.46,1.89l-0.05,0.05l-0.23-0.21c0.29-0.43,0.42-0.82-0.01-1.15c-0.49-0.369-0.99-0.119-1.36,0.37   c-0.369,0.49-0.47,1.03,0.021,1.4c0.38,0.29,0.7,0.14,1-0.17l0.22,0.21c-0.47,0.58-0.95,1.16-1.43,1.729l-0.07,0.07l-0.18-0.17   c0.3-0.41,0.43-0.79,0.02-1.13c-0.47-0.39-0.979-0.17-1.37,0.3c-0.39,0.47-0.52,1.01-0.05,1.4c0.38,0.319,0.71,0.17,1.03-0.15   l0.18,0.17c-0.55,0.63-1.109,1.25-1.67,1.84c-0.42,0.391-0.609,1-0.5,1.53l-20.95,22.28c-4.159-3.79-9.5-7.28-14.59-2.391   c-0.84,0.811-1.5,1.771-1.93,2.771c-0.28,0.46-0.53,0.92-0.78,1.38c-0.95,1.71-1.84,3.33-4,4.87c-2.62,1.87-5.5,2.82-8.27,3.729   c-3.53,1.16-6.86,2.25-9.46,5.07c-3.25,3.561-4.94,8.42-4.391,12.7C11.586,74.97,16.076,79.649,20.046,83.77z M76.376,17.689   c0.62-0.64,1.2-1.3,1.79-1.96l0.37-0.43c0.51-0.6,1.01-1.2,1.51-1.81l0.36-0.45c0.51-0.641,1.02-1.29,1.52-1.96l1.641-2.2   c0.109-0.18,0.439-0.33,0.739-0.29c1.54,0.9,2.801,2,3.971,3.47c0.06,0.24-0.061,0.58-0.271,0.74c-0.58,0.48-1.17,0.99-1.76,1.51   l-0.44,0.4c-0.6,0.55-1.189,1.11-1.79,1.68l-0.409,0.4c-0.561,0.54-1.11,1.1-1.641,1.66l-0.39,0.409   c-0.54,0.561-1.061,1.131-1.59,1.73c-0.101,0.12-0.34,0.25-0.59,0.29l-3.23-2.55C76.116,18.14,76.186,17.87,76.376,17.689z    M75.796,19.31l2.72,2.15l-1.14,1.36l-2.78-2.24L75.796,19.31z M73.916,21.31l2.81,2.271l-1.149,1.35l-2.87-2.34L73.916,21.31z    M72.016,23.32l2.91,2.38l-1.149,1.35l-2.95-2.45L72.016,23.32z M70.136,25.33l2.99,2.479l-1.15,1.36l-3.04-2.57L70.136,25.33z    M68.246,27.33l3.09,2.6l-1.15,1.36l-3.14-2.681L68.246,27.33z M65.776,29.96l0.59-0.62l3.17,2.71l-1.15,1.36l-3.22-2.801   L65.776,29.96z M64.486,31.34l3.25,2.83l-1.15,1.36l-3.3-2.91L64.486,31.34z M62.596,33.35l3.34,2.94l-0.899,1.069l-0.25,0.29   l-3.38-3.029L62.596,33.35z M60.716,35.35l3.42,3.061l-1.149,1.35l-3.471-3.14L60.716,35.35z M58.836,37.35l3.51,3.181l-1.16,1.359   l-3.55-3.26L58.836,37.35z M56.956,39.35l3.58,3.3l-1.16,1.36l-3.62-3.38L56.956,39.35z M55.066,41.359l3.67,3.421l-0.83,0.97   l-0.33,0.39l-3.7-3.51L55.066,41.359z M53.186,43.359l3.75,3.54l-1.159,1.36l-3.78-3.64L53.186,43.359z M51.316,45.35l3.81,3.67   l-1.15,1.36l-3.859-3.75L51.316,45.35z M49.436,47.35l3.891,3.8l-1.16,1.36l-3.93-3.88L49.436,47.35z M47.546,49.359l3.97,3.91   l-1.149,1.36l-4.01-4.01L47.546,49.359z M39.416,52.64c1.58-1.52,3.86-2.1,5.99-1.55l4.529,4.53c0.57,2.22-0.079,4.58-1.739,6.17   c-2.521,2.42-6.54,2.34-8.96-0.181c-1.17-1.22-1.801-2.829-1.771-4.52C37.496,55.39,38.186,53.81,39.416,52.64z M30.946,62.05   l0.42-0.42c0.18-0.17,0.439-0.28,0.71-0.28c0.27,0,0.53,0.11,0.71,0.28l7.67,7.67c0.19,0.19,0.29,0.44,0.29,0.71   c0,0.271-0.1,0.521-0.29,0.71l-0.42,0.42c-0.19,0.181-0.44,0.28-0.71,0.28c-0.271,0-0.521-0.1-0.71-0.28l-7.67-7.67   c-0.19-0.189-0.29-0.439-0.29-0.71C30.656,62.49,30.756,62.24,30.946,62.05z"></path><circle fill="#000000" cx="78.99" cy="16.39" r="0.609"></circle><circle fill="#000000" cx="80.98" cy="13.999" r="0.609"></circle><circle fill="#000000" cx="82.972" cy="11.61" r="0.609"></circle><circle fill="#000000" cx="85.346" cy="13.774" r="0.609"></circle><circle fill="#000000" cx="83.128" cy="15.957" r="0.609"></circle><circle fill="#000000" cx="80.913" cy="18.138" r="0.609"></circle></g></svg>