<?xml version="1.0" standalone="no"?>
<!DOCTYPE svg PUBLIC "-//W3C//DTD SVG 1.1//EN" "http://www.w3.org/Graphics/SVG/1.1/DTD/svg11.dtd" >
<svg xmlns="http://www.w3.org/2000/svg" xmlns:xlink="http://www.w3.org/1999/xlink" version="1.1">
<metadata></metadata>
<defs>
<font id="hindbold" horiz-adv-x="1187" >
<font-face units-per-em="2048" ascent="1638" descent="-410" />
<missing-glyph horiz-adv-x="512" />
<glyph horiz-adv-x="0" />
<glyph horiz-adv-x="682" />
<glyph horiz-adv-x="0" />
<glyph horiz-adv-x="0" />
<glyph unicode="&#xd;" horiz-adv-x="681" />
<glyph unicode=" "  horiz-adv-x="512" />
<glyph unicode="&#x09;" horiz-adv-x="512" />
<glyph unicode="&#xa0;" horiz-adv-x="512" />
<glyph unicode="!" horiz-adv-x="591" d="M106 170q0 78 54.5 132t132.5 54t132 -54t54 -132t-54 -132t-132 -54t-132.5 54t-54.5 132zM154 483v897h284v-897h-284z" />
<glyph unicode="&#x22;" horiz-adv-x="792" d="M82 860v535h250v-535h-250zM461 860v535h250v-535h-250z" />
<glyph unicode="#" horiz-adv-x="1550" d="M92 315v228h254l57 276h-241v238h293l67 321h254l-67 -321h278l68 321h254l-68 -321h217v-238h-268l-60 -276h259v-228h-306l-67 -315h-252l65 315h-278l-68 -315h-252l66 315h-205zM598 543h281l57 276h-279z" />
<glyph unicode="$" horiz-adv-x="1052" d="M70 991q0 158 104.5 263.5t290.5 127.5v236h250v-240q109 -16 205 -59v-295q-166 96 -345 96q-80 0 -121.5 -32.5t-41.5 -84t51 -91.5t153 -85q63 -29 105.5 -50t96.5 -59t86 -80t54.5 -103.5t22.5 -133.5q0 -156 -99.5 -264t-269.5 -141v-238h-247v232q-170 16 -283 80 v317q186 -135 397 -135q72 0 119 38t47 99q0 20 -6 38.5t-22.5 35t-32 28t-45 26.5t-50 25.5t-60.5 29t-64 28.5q-133 61 -214 151.5t-81 239.5z" />
<glyph unicode="%" horiz-adv-x="1992" d="M92 1089.5q0 161.5 113.5 275.5t275.5 114t275.5 -114t113.5 -275.5t-113.5 -275.5t-275.5 -114t-275.5 114t-113.5 275.5zM332 1089.5q0 -61.5 44 -105.5t105.5 -44t105.5 44t44 105.5t-44 105.5t-105.5 44t-105.5 -44t-44 -105.5zM465 -2l776 1450h270l-778 -1450h-268 zM1122 373q0 162 114 275.5t275.5 113.5t275.5 -113.5t114 -275.5t-114 -275.5t-275.5 -113.5t-275.5 113.5t-114 275.5zM1362 372.5q0 -61.5 44 -105.5t105.5 -44t105.5 44t44 105.5t-44 105.5t-105.5 44t-105.5 -44t-44 -105.5z" />
<glyph unicode="&#x26;" horiz-adv-x="1519" d="M102 377q0 254 291 348q-139 154 -139 303q0 182 125 281.5t315 99.5q215 0 337 -101.5t122 -283.5q0 -121 -68.5 -214t-222.5 -171l201 -197q37 80 37 174h268q0 -205 -115 -364l256 -252h-366l-80 80q-166 -96 -377 -96q-270 0 -427 114.5t-157 278.5zM408 387 q0 -70 79.5 -114t200.5 -44q96 0 182 37l-260 254q-6 6 -19 18.5t-22 20.5q-94 -33 -127.5 -74t-33.5 -98zM557 1032q0 -90 141 -231q154 84 154 207q0 76 -42 116.5t-116 40.5q-59 0 -98 -34.5t-39 -98.5z" />
<glyph unicode="'" horiz-adv-x="413" d="M82 860v535h250v-535h-250z" />
<glyph unicode="(" horiz-adv-x="692" d="M82 530q0 532 321 918h310q-150 -182 -233 -442.5t-83 -483.5q0 -217 86 -469.5t250 -453.5h-317q-334 416 -334 931z" />
<glyph unicode=")" horiz-adv-x="692" d="M-41 -401q164 201 250 453.5t86 469.5q0 223 -83 483.5t-232 442.5h309q322 -385 321 -918q0 -516 -334 -931h-317z" />
<glyph unicode="*" horiz-adv-x="1040" d="M57 956l76 230l191 -62q53 -18 92 -47q-14 49 -15 103v200h242v-200q0 -53 -14 -103q37 27 90 45l192 62l74 -230l-188 -61q-52 -16 -103 -16h-4q43 -33 74 -74l119 -164l-197 -141l-117 161q-33 45 -45 89q-16 -39 -49 -86l-121 -164l-194 143l119 162q31 41 71 71 q-47 0 -100 19z" />
<glyph unicode="+" horiz-adv-x="1206" d="M92 561v266h373v371h274v-371h375v-266h-375v-368h-274v368h-373z" />
<glyph unicode="," horiz-adv-x="602" d="M-14 -260l207 534h329l-278 -534h-258z" />
<glyph unicode="-" horiz-adv-x="731" d="M92 414v245h547v-245h-547z" />
<glyph unicode="." horiz-adv-x="528" d="M82 166q0 76 53 129t129 53t129 -53t53 -129t-53 -129t-129 -53t-129 53t-53 129z" />
<glyph unicode="/" horiz-adv-x="950" d="M-4 -211l735 1659h311l-737 -1659h-309z" />
<glyph unicode="0" horiz-adv-x="1120" d="M72 676q0 319 122.5 505.5t364.5 186.5t366 -186.5t124 -505.5q0 -315 -124 -503.5t-366 -188.5t-364.5 187.5t-122.5 504.5zM377 676q0 -426 182 -426q184 0 184 426t-184 426q-182 0 -182 -426z" />
<glyph unicode="1" horiz-adv-x="778" d="M20 815v305l377 219h258v-1339h-297v1018z" />
<glyph unicode="2" horiz-adv-x="1026" d="M61 0v231q221 152 390.5 336.5t169.5 325.5q0 86 -51.5 136t-155.5 50q-174 0 -330 -129v289q68 49 176.5 84t212.5 35q209 0 333 -109.5t124 -306.5q0 -354 -451 -688h475v-254h-893z" />
<glyph unicode="3" horiz-adv-x="989" d="M61 59v287q164 -90 338 -90q100 0 156.5 43t56.5 109q0 150 -276 149h-72v246h72q109 0 178.5 37t69.5 110q0 141 -185 142q-141 0 -284 -88v278q152 76 305 76q217 0 344 -103.5t127 -269.5q0 -227 -207 -313q233 -55 234 -303q0 -172 -130.5 -275.5t-363.5 -103.5 q-219 0 -363 69z" />
<glyph unicode="4" horiz-adv-x="1150" d="M61 285v254l410 804h475v-804h164v-254h-164v-285h-297v285h-588zM354 539h295v606z" />
<glyph unicode="5" horiz-adv-x="1024" d="M72 59v283q139 -86 311 -86q274 0 274 197q0 74 -56 116.5t-169 42.5q-158 0 -303 -67v798h752v-253h-461v-228q45 6 90 6q219 0 336 -112.5t117 -306.5q0 -209 -138.5 -335t-392.5 -126q-223 0 -360 71z" />
<glyph unicode="6" horiz-adv-x="1099" d="M72 612q0 342 187 547t474 205q109 0 211 -33v-276q-80 43 -186 43q-145 0 -238.5 -89t-126.5 -239q111 94 264 94q176 0 284 -116.5t108 -313.5q0 -203 -128 -339t-350 -136q-248 0 -373.5 177t-125.5 476zM381 524q22 -299 192 -299q80 0 125 55.5t45 147.5 q0 84 -44 134t-124 50q-111 0 -194 -88z" />
<glyph unicode="7" horiz-adv-x="983" d="M41 1087v254h901v-254l-520 -1087h-316l523 1087h-588z" />
<glyph unicode="8" horiz-adv-x="1116" d="M72 362q0 217 194 314q-174 100 -174 288.5t130 294t331 105.5q209 0 339 -100.5t130 -298.5q0 -185 -168 -283q190 -88 190 -309q0 -176 -136 -284.5t-355 -108.5q-221 0 -351 103t-130 279zM371 371q0 -63 44 -108.5t140 -45.5q94 0 142 46t48 112q0 74 -50 121 t-140 47q-92 0 -138 -51.5t-46 -120.5zM393 969q0 -78 47 -121t119 -43q70 0 117 43t47 121q0 157 -170 157q-82 0 -121 -46t-39 -111z" />
<glyph unicode="9" horiz-adv-x="1091" d="M41 891q0 201 126 334t341 133q240 0 376 -173t136 -472q0 -367 -174 -548t-465 -181q-140 0 -244 39v282q106 -51 211 -51q160 0 248 72.5t115 228.5q-88 -88 -267 -88q-180 0 -291.5 115.5t-111.5 308.5zM346 897q0 -82 47 -135t127 -53q123 0 199 92q-25 291 -197 291 q-80 0 -128 -51.5t-48 -143.5z" />
<glyph unicode=":" horiz-adv-x="585" d="M113 180q0 76 52 128t128 52t128 -52t52 -128t-52 -128t-128 -52t-128 52t-52 128zM113 858q0 76 52 128t128 52t128 -52t52 -128t-52 -128t-128 -52t-128 52t-52 128z" />
<glyph unicode=";" horiz-adv-x="602" d="M-14 -260l207 534h329l-278 -534h-258zM150 858q0 76 52 128t128 52t128 -52t52 -128t-52 -128t-128 -52t-128 52t-52 128z" />
<glyph unicode="&#x3c;" horiz-adv-x="1206" d="M92 555v283l1022 364v-295l-725 -211l725 -211v-295z" />
<glyph unicode="=" horiz-adv-x="1206" d="M92 340v246h1022v-246h-1022zM92 807v246h1022v-246h-1022z" />
<glyph unicode="&#x3e;" horiz-adv-x="1206" d="M92 190v295l725 211l-725 211v295l1022 -364v-283z" />
<glyph unicode="?" horiz-adv-x="937" d="M133 1059v280q123 57 313 58q193 0 312 -101.5t119 -273.5q0 -92 -37 -167t-92.5 -117t-108.5 -64.5t-96 -22.5l-6 -168h-273l-6 310q315 0 315 192q0 74 -44 118t-130 44q-133 0 -266 -88zM211 170q0 78 54 132t132 54t132.5 -54t54.5 -132t-54.5 -132t-132.5 -54 t-132 54t-54 132z" />
<glyph unicode="@" horiz-adv-x="2000" d="M82 410q0 264 133 487t358.5 350t489.5 127q229 0 424.5 -94t318.5 -281.5t123 -431.5q0 -242 -121.5 -404.5t-294.5 -162.5q-242 0 -313 223q-41 -109 -124 -165t-187 -56q-166 0 -262.5 126t-96.5 308q0 213 125 343t295 130q166 0 246 -149q8 100 10 145h238l-2 -41 q-25 -369 -25 -411q0 -221 105 -222q72 0 116.5 85t44.5 231q0 291 -177 438.5t-453 147.5q-211 0 -376 -105.5t-249 -271.5t-84 -355q0 -276 176 -439t436 -163q215 1 412 95l-8 -252q-188 -84 -402 -84q-274 0 -476.5 119.5t-301 310t-98.5 422.5zM793 424 q0 -94 54 -151.5t128 -57.5q68 0 126 52t79 151q0 12 1 40.5t1 41.5q-12 96 -63.5 146t-119.5 50q-86 0 -146 -71.5t-60 -200.5z" />
<glyph unicode="A" horiz-adv-x="1413" d="M47 0l461 1380h397l461 -1380h-338l-84 283h-483l-84 -283h-330zM537 537h331l-14 49q-59 201 -97 342t-46 182l-9 41q-16 -113 -151 -565z" />
<glyph unicode="B" horiz-adv-x="1239" d="M133 0v1380h537q227 0 346 -107.5t119 -273.5q0 -109 -57.5 -190.5t-149.5 -110.5q239 -72 240 -321q0 -166 -118 -271.5t-321 -105.5h-596zM449 252h165q234 0 234 160q0 159 -232 159h-167v-319zM449 819h116q123 0 185.5 45t62.5 119q0 145 -197 145h-167v-309z" />
<glyph unicode="C" horiz-adv-x="1255" d="M82 686q0 315 197.5 514t515.5 199q233 0 358 -78v-303q-154 94 -342 94q-166 0 -278.5 -115.5t-112.5 -310.5q0 -190 112.5 -302t290.5 -112q193 0 330 99v-310q-123 -77 -354 -77h-6q-303 0 -507 195.5t-204 506.5z" />
<glyph unicode="D" horiz-adv-x="1398" d="M133 0v1380h475q311 0 510 -191.5t199 -475.5q0 -332 -195.5 -522.5t-517.5 -190.5h-471zM457 258h143q190 0 293.5 119t103.5 336q0 184 -104.5 295.5t-294.5 111.5h-141v-862z" />
<glyph unicode="E" horiz-adv-x="1114" d="M133 0v1380h850v-252h-532v-313h475v-250h-475v-313h540v-252h-858z" />
<glyph unicode="F" horiz-adv-x="1036" d="M133 0v1380h842v-252h-524v-356h456v-252h-456v-520h-318z" />
<glyph unicode="G" horiz-adv-x="1445" d="M82 692q0 324 216 518.5t548 194.5q233 0 403 -86v-315q-195 112 -399 112h-4q-195 0 -309.5 -115.5t-114.5 -308.5q0 -195 112.5 -309.5t307.5 -114.5q88 0 174 27v260h-223v268h530v-696q-197 -143 -496 -143q-332 0 -538.5 190.5t-206.5 517.5z" />
<glyph unicode="H" horiz-adv-x="1404" d="M133 0v1380h316v-561h505v561h318v-1380h-318v551h-505v-551h-316z" />
<glyph unicode="I" horiz-adv-x="622" d="M154 0v1380h315v-1380h-315z" />
<glyph unicode="J" horiz-adv-x="802" d="M61 39v278q76 -47 158 -47q145 0 146 156v952h315v-960q0 -199 -105.5 -309.5t-293.5 -110.5q-142 0 -220 41z" />
<glyph unicode="K" horiz-adv-x="1355" d="M133 0v1380h316v-1380h-316zM463 686l446 694h375l-453 -690l490 -690h-395z" />
<glyph unicode="L" horiz-adv-x="999" d="M133 0v1380h316v-1104h509v-276h-825z" />
<glyph unicode="M" horiz-adv-x="1828" d="M102 0l119 1380h346l193 -499q49 -125 84 -229.5t45 -147.5l10 -41q33 135 143 418l195 499h346l143 -1380h-315l-51 535l-27 403q-53 -154 -147 -403l-195 -521h-186l-193 521q-47 127 -79.5 227t-43.5 139l-10 37q0 -145 -18 -403l-43 -535h-316z" />
<glyph unicode="N" horiz-adv-x="1427" d="M133 0v1380h346l322 -571q68 -121 118 -226.5t64 -148.5l16 -45q-20 152 -20 420v571h315v-1380h-346l-330 571q-66 111 -115.5 218.5t-68.5 158.5l-16 51q31 -184 31 -428v-571h-316z" />
<glyph unicode="O" horiz-adv-x="1507" d="M82 694q0 317 183.5 513t488.5 196q307 0 489 -194.5t182 -514.5q0 -317 -183 -512.5t-488 -195.5q-307 0 -489.5 194.5t-182.5 513.5zM420 694.5q0 -194.5 90 -308.5t243.5 -114t243.5 114t90 308.5t-90 308t-243.5 113.5t-243.5 -113.5t-90 -308z" />
<glyph unicode="P" horiz-adv-x="1153" d="M133 0v1380h475q229 0 371.5 -129t142.5 -327q0 -227 -148.5 -352.5t-365.5 -125.5h-159v-446h-316zM449 696h155q96 12 147.5 75t51.5 153q0 76 -53.5 137t-145.5 67h-155v-432z" />
<glyph unicode="Q" horiz-adv-x="1517" d="M82 694.5q0 317.5 183.5 513t488.5 195.5q307 0 489 -194.5t182 -514.5q0 -217 -88 -380.5t-247 -250.5l421 -235l-358 -137l-408 295q-303 2 -483 196.5t-180 512zM420 694.5q0 -194.5 90 -308.5t243.5 -114t243.5 114t90 308.5t-90 308t-243.5 113.5t-243.5 -113.5 t-90 -308z" />
<glyph unicode="R" horiz-adv-x="1257" d="M133 0v1380h477q231 0 371.5 -122.5t140.5 -319.5q0 -295 -252 -408l351 -530h-377l-299 479h-96v-479h-316zM449 735h149q205 0 205 201q0 88 -53.5 138t-145.5 50h-155v-389z" />
<glyph unicode="S" horiz-adv-x="1052" d="M80 991q0 178 131 288t362 110q207 0 357 -70v-295q-166 96 -344 96q-80 0 -122 -32.5t-42 -84t51 -91.5t154 -85q63 -29 105 -50t96.5 -59t86 -80t54 -103.5t22.5 -133.5q0 -186 -137 -301.5t-365 -115.5q-244 0 -397 86v317q186 -135 397 -135q72 0 119 38t47 99 q0 20 -6 38.5t-22.5 35t-31.5 28t-45 26.5t-50.5 25.5t-60.5 29t-64 28.5q-133 61 -214 151.5t-81 239.5z" />
<glyph unicode="T" horiz-adv-x="1114" d="M61 1126v254h992v-254h-336v-1126h-318v1126h-338z" />
<glyph unicode="U" horiz-adv-x="1368" d="M123 520v860h315v-858q0 -256 246 -256t246 266v848h315v-845q0 -270 -151.5 -412.5t-409.5 -142.5q-254 0 -407.5 141t-153.5 399z" />
<glyph unicode="V" horiz-adv-x="1349" d="M39 1380h340l166 -551q45 -147 77.5 -283t43.5 -198l10 -63q33 213 133 544l166 551h336l-465 -1380h-348z" />
<glyph unicode="W" horiz-adv-x="1988" d="M39 1380h332l127 -508q41 -164 67.5 -296t32.5 -183l8 -49q35 160 139 528l138 488h233l135 -488q43 -154 77 -285.5t46 -187.5l12 -55q27 182 115 530l127 506h322l-369 -1380h-352l-121 436q-43 158 -70.5 266.5t-33.5 139.5l-5 30q-6 -84 -110 -436l-127 -436h-352z " />
<glyph unicode="X" horiz-adv-x="1357" d="M55 0l437 700l-416 680h366l230 -403q41 76 116.5 214t102.5 189h385l-418 -682l445 -698h-375l-250 430q-45 -84 -131 -234.5t-111 -195.5h-381z" />
<glyph unicode="Y" horiz-adv-x="1316" d="M27 1380h368l84 -200q66 -156 109 -266.5t55 -143.5l10 -33q20 92 181 443l90 200h366l-477 -872v-508h-315v506z" />
<glyph unicode="Z" horiz-adv-x="1271" d="M123 0v231l618 895h-606v254h989v-223l-622 -903h647v-254h-1026z" />
<glyph unicode="[" horiz-adv-x="743" d="M133 -401v1849h580v-260h-297v-1327h297v-262h-580z" />
<glyph unicode="\" horiz-adv-x="950" d="M-92 1448h311l735 -1659h-309z" />
<glyph unicode="]" horiz-adv-x="743" d="M31 -139h297v1327h-297v260h579v-1849h-579v262z" />
<glyph unicode="^" horiz-adv-x="1005" d="M68 680l309 537h252l309 -537h-276l-158 299l-160 -299h-276z" />
<glyph unicode="_" horiz-adv-x="1118" d="M41 -92h1036v-248h-1036v248z" />
<glyph unicode="`" horiz-adv-x="1024" d="M274 1634h299l177 -362h-248z" />
<glyph unicode="a" horiz-adv-x="1056" d="M72 295q0 150 109.5 232.5t324.5 82.5h131v72q0 131 -174 131q-168 0 -311 -94v268q123 70 354 70q221 0 329.5 -95.5t108.5 -295.5v-666h-293v127q-66 -133 -258 -133q-152 0 -236.5 86t-84.5 215zM383 309q0 -104 121 -104q63 0 98 39t35 106v76h-96q-76 0 -117 -33 t-41 -84z" />
<glyph unicode="b" horiz-adv-x="1251" d="M123 0v1448h299v-569q106 172 309 172q195 0 322 -141.5t127 -387.5q0 -219 -122 -376.5t-325 -157.5q-207 0 -311 174v-162h-299zM422 530q0 -133 63.5 -212.5t165.5 -79.5q94 0 160 76.5t66 201.5q0 135 -64.5 211t-159 76t-163 -72t-68.5 -201z" />
<glyph unicode="c" horiz-adv-x="960" d="M72 516q4 233 151.5 386t403.5 153q158 0 272 -60v-256q-109 68 -242 68q-125 0 -202.5 -75t-79.5 -216q8 -137 81.5 -213t194.5 -76q129 0 248 72v-250q-119 -65 -286 -65h-5q-233 0 -384.5 148.5t-151.5 383.5z" />
<glyph unicode="d" horiz-adv-x="1251" d="M72 522q0 246 127 387.5t321 141.5q203 0 309 -172v569h299v-1448h-299v162q-104 -174 -311 -174q-203 0 -324.5 157.5t-121.5 376.5zM375 516q0 -125 65.5 -201.5t159.5 -76.5q102 0 165.5 79.5t63.5 212.5q0 129 -68.5 201t-162.5 72t-158.5 -76t-64.5 -211z" />
<glyph unicode="e" horiz-adv-x="1091" d="M72 520q0 248 138 388.5t341 140.5q209 0 329.5 -122t120.5 -364q0 -47 -16 -162h-610q31 -86 106.5 -133t182.5 -47q157 0 274 88v-250q-105 -69 -320 -69h-6q-256 0 -398 148.5t-142 381.5zM362 614h361v25q-14 182 -160 182q-72 0 -127 -52t-74 -155z" />
<glyph unicode="f" horiz-adv-x="708" d="M61 819v219h136v39q0 188 105.5 293t291.5 105q97 -1 156 -21v-242q-57 23 -107 23q-76 0 -112.5 -35t-36.5 -123v-39h194v-219h-194v-819h-297v819h-136z" />
<glyph unicode="g" horiz-adv-x="1198" d="M82 539q0 221 120 365.5t314 144.5q184 0 272 -148v137h297v-938q0 -250 -149.5 -375.5t-374.5 -125.5q-219 0 -383 77v306q143 -115 352 -115q135 0 196.5 57.5t61.5 179.5v70q-90 -139 -286 -139q-172 0 -296 127t-124 377zM393 537q0 -129 49.5 -197t141.5 -68 q96 0 150 73t54 175q0 279 -202 279q-90 0 -141.5 -70t-51.5 -192z" />
<glyph unicode="h" d="M123 0v1448h299v-586q80 186 311 187q152 0 247 -96.5t95 -290.5v-662h-299v614q0 90 -45 141.5t-117 51.5q-31 0 -58.5 -9.5t-60 -33t-53 -79.5t-20.5 -136v-549h-299z" />
<glyph unicode="i" horiz-adv-x="565" d="M109 1339.5q0 71.5 51 122.5t122.5 51t123 -51t51.5 -122.5t-51.5 -123t-123 -51.5t-122.5 51.5t-51 123zM133 0v1038h299v-1038h-299z" />
<glyph unicode="j" horiz-adv-x="561" d="M-82 -145q68 -31 117 -31q106 0 106 137v1077h297v-1081q0 -164 -92 -263.5t-266 -99.5q-72 0 -162 33v228zM115 1339.5q0 71.5 51 122.5t122.5 51t123 -51t51.5 -122.5t-51.5 -123t-123 -51.5t-122.5 51.5t-51 123z" />
<glyph unicode="k" horiz-adv-x="1122" d="M123 0v1413h299v-840l328 465h344l-361 -497l367 -541h-346l-332 510v-510h-299z" />
<glyph unicode="l" horiz-adv-x="565" d="M133 0v1448h299v-1448h-299z" />
<glyph unicode="m" horiz-adv-x="1759" d="M123 0v1038h299v-161q86 172 293 172q219 0 291 -197q35 92 116.5 144.5t192.5 52.5q154 0 243 -97.5t89 -285.5v-666h-299v616q0 88 -35 139.5t-101 51.5q-70 0 -124 -56.5t-54 -201.5v-549h-299v616q0 88 -34.5 139.5t-100.5 51.5q-70 0 -124 -56.5t-54 -201.5v-549 h-299z" />
<glyph unicode="n" d="M123 0v1038h299v-176q39 86 120 136.5t193 50.5q160 0 250 -95.5t90 -279.5v-674h-299v618q0 92 -43 140.5t-121 48.5q-82 0 -136 -64.5t-54 -193.5v-549h-299z" />
<glyph unicode="o" horiz-adv-x="1161" d="M72 506q0 240 139 394.5t371 154.5q242 0 375 -149.5t133 -381.5q0 -236 -134 -388t-374 -152q-244 0 -377 146t-133 376zM383 518q0 -133 50 -218t151 -85q98 0 146 83t48 219q0 302 -198 302q-98 0 -147.5 -84t-49.5 -217z" />
<glyph unicode="p" horiz-adv-x="1251" d="M123 -383v1421h299v-159q109 172 313 172q201 0 323 -142.5t122 -386.5q0 -231 -118 -382.5t-327 -151.5q-211 0 -313 166v-537h-299zM422 530q0 -133 65.5 -212.5t167.5 -79.5q98 0 160 74.5t62 203.5q0 141 -62.5 214t-159.5 73q-94 0 -163.5 -72t-69.5 -201z" />
<glyph unicode="q" horiz-adv-x="1251" d="M72 522q0 244 122.5 386.5t325.5 142.5t309 -172v159h299v-1421h-299v545q-104 -174 -311 -174q-209 0 -327.5 151.5t-118.5 382.5zM375 516q0 -125 65.5 -201.5t159.5 -76.5q102 0 165.5 79.5t63.5 212.5q0 129 -68.5 201t-162.5 72t-158.5 -76t-64.5 -211z" />
<glyph unicode="r" horiz-adv-x="757" d="M121 0l2 1038h297v-192q29 90 95.5 144t154.5 54q49 0 78 -8v-282q-47 22 -108 22h-5q-96 0 -155.5 -70.5t-59.5 -187.5v-518h-299z" />
<glyph unicode="s" horiz-adv-x="892" d="M224.5 967q115.5 84 287.5 84q160 0 266 -43v-256q-109 63 -254 63q-53 0 -81.5 -21.5t-28.5 -54.5q0 -18 10 -34.5t33.5 -31t45 -25.5t59.5 -27.5t61 -28.5q94 -49 151 -113.5t57 -165.5q0 -154 -110.5 -237.5t-292.5 -83.5q-188 0 -315 63v267q141 -98 299 -99 q112 0 112 71v1q0 18 -10 34.5t-34.5 31t-45 23.5t-59.5 25.5t-60 26.5q-206 98 -206 293q0 154 115.5 238z" />
<glyph unicode="t" horiz-adv-x="790" d="M20 819v219h150v246h299v-246h242v-219h-242v-477q0 -55 31.5 -84t83.5 -29q82 0 145 41v-247q-76 -33 -205 -33q-354 0 -354 354v475h-150z" />
<glyph unicode="u" d="M113 344v694h299v-626q0 -182 159 -183q195 0 195 260v549h299v-1038h-299v166q-82 -174 -315 -174q-160 0 -249 89t-89 263z" />
<glyph unicode="v" horiz-adv-x="1097" d="M10 1038h314l135 -442q31 -102 53.5 -193.5t28.5 -132.5l8 -39q18 133 92 365l139 442h307l-387 -1038h-307z" />
<glyph unicode="w" horiz-adv-x="1650" d="M10 1038h309l91 -342q33 -129 55 -232.5t27 -141.5l6 -39q14 123 100 413l100 342h258l99 -342q37 -131 61.5 -234.5t30.5 -142.5l6 -36q14 121 96 413l97 342h294l-331 -1038h-308l-90 340q-29 111 -50 207t-27 137l-7 41q-20 -137 -86 -385l-90 -340h-307z" />
<glyph unicode="x" horiz-adv-x="1077" d="M33 0l370 520l-348 518h332l168 -309l186 309h328l-373 -520l346 -518h-325l-174 311l-187 -311h-323z" />
<glyph unicode="y" horiz-adv-x="1089" d="M10 1038h326l113 -323q43 -125 70.5 -215t33.5 -119l6 -29q23 82 111 363l102 323h307l-374 -1007q-162 -436 -494 -437q-63 0 -115 11v237q33 -8 70 -8q170 0 246 182z" />
<glyph unicode="z" horiz-adv-x="980" d="M82 0v215l455 594h-437v229h774v-207l-454 -600h479v-231h-817z" />
<glyph unicode="{" horiz-adv-x="778" d="M82 377v289h35q80 0 127 59t47 137q0 33 -12.5 111t-12.5 123q0 160 91.5 264t234.5 104q63 0 135 -24v-277q-31 18 -63 19q-43 0 -74 -32t-31 -81q0 -25 12.5 -105.5t12.5 -129.5q0 -125 -71 -212t-167 -100q96 -12 167 -100t71 -213q0 -49 -12.5 -130t-12.5 -106 q0 -49 31 -80.5t74 -31.5q33 0 63 18v-276q-72 -25 -135 -25q-143 0 -234.5 104.5t-91.5 264.5q0 45 12.5 122.5t12.5 110.5q0 78 -47 138.5t-127 60.5z" />
<glyph unicode="|" horiz-adv-x="573" d="M143 -397v1820h287v-1820h-287z" />
<glyph unicode="}" horiz-adv-x="778" d="M51 -121q31 -18 64 -18q43 0 73.5 31.5t30.5 80.5q0 25 -12 106t-12 130q0 125 70.5 213t166.5 100q-96 12 -166.5 99.5t-70.5 212.5q0 49 12 129.5t12 105.5q0 49 -30.5 81t-73.5 32q-33 0 -64 -19v277q72 25 135 24q143 0 234.5 -104.5t91.5 -263.5q0 -45 -12.5 -123 t-12.5 -111q0 -78 47.5 -137t127.5 -59h34v-289q-14 2 -34 2q-80 0 -127.5 -60.5t-47.5 -138.5q0 -33 12.5 -110.5t12.5 -122.5q0 -160 -91 -264.5t-235 -104.5q-63 0 -135 25v276z" />
<glyph unicode="~" horiz-adv-x="1339" d="M57 532q63 90 155.5 157t197.5 67q135 0 269 -50.5t183 -50.5q68 0 113 29t98 92l207 -166q-158 -223 -354 -223q-117 0 -249 50t-202 50q-68 0 -113 -28.5t-98 -89.5z" />
<glyph unicode="&#xa1;" horiz-adv-x="591" d="M106 872.5q0 77.5 54.5 132t132.5 54.5t132 -54.5t54 -132t-54 -132t-132 -54.5t-132.5 54.5t-54.5 132zM154 -338v897h284v-897h-284z" />
<glyph unicode="&#xa2;" horiz-adv-x="978" d="M61 516q4 199 116 342t308 182v230h250v-226q88 -16 162 -55v-250q-109 68 -242 68q-127 0 -207.5 -76t-82.5 -215q8 -135 84.5 -212t199.5 -77q129 0 248 72v-250q-72 -37 -162 -53v-223h-248v221q-188 37 -307 178t-119 344z" />
<glyph unicode="&#xa3;" horiz-adv-x="1105" d="M90 547v217h123q-6 49 -6 96q0 231 121 361.5t358 130.5q174 0 281 -66v-282q-94 68 -213 67q-215 0 -215 -223q0 -27 4 -84h340v-217h-318v-35q0 -180 -125 -260h598v-252h-946v248q150 78 150 266v33h-152z" />
<glyph unicode="&#xa4;" horiz-adv-x="1169" d="M57 291l121 117q-59 106 -59 229q0 121 57 225l-119 117l174 168l119 -117q104 57 236 57q127 0 233 -55l119 115l174 -168l-119 -117q59 -109 60 -225q0 -121 -62 -229l121 -117l-174 -168l-121 115q-102 -53 -231 -54q-131 0 -236 56l-119 -117zM369 637 q0 -90 61.5 -154.5t155.5 -64.5t155.5 64.5t61.5 154.5t-61.5 154.5t-155.5 64.5t-155.5 -64.5t-61.5 -154.5z" />
<glyph unicode="&#xa5;" horiz-adv-x="1300" d="M18 1341h369l258 -503l270 503h367l-348 -602h229v-184h-336l-22 -39v-92h358v-184h-358v-240h-316v240h-354v184h354v92l-22 39h-332v184h227z" />
<glyph unicode="&#xa6;" horiz-adv-x="573" d="M143 -240v693h287v-693h-287zM143 756v692h287v-692h-287z" />
<glyph unicode="&#xa7;" horiz-adv-x="1226" d="M117 602q0 127 94 240q-61 78 -61 180q0 168 125.5 269.5t349.5 101.5q200 0 356 -72v-295q-170 98 -344 98q-158 0 -158 -100q0 -16 5 -30.5t20.5 -28t31 -24.5t47 -28.5t59.5 -32t77 -39t90 -46.5q141 -74 209.5 -160t68.5 -232q0 -133 -86 -235q63 -84 64 -184 q0 -170 -132 -268.5t-360 -98.5q-244 0 -397 86v317q186 -135 397 -135q168 0 168 99q0 53 -61.5 93t-314.5 150q-248 111 -248 375zM420 596q0 -57 53 -100t191 -103q68 -29 104 -49q16 33 16 66q0 29 -11 52t-26.5 40.5t-49 38t-60.5 34l-80 40t-90 44.5l-25 13 q-23 -39 -22 -76z" />
<glyph unicode="&#xa8;" horiz-adv-x="1024" d="M68 1454q0 70 48 118t122 48q72 0 120 -48t48 -118q0 -72 -48.5 -120t-119.5 -48q-74 0 -122 48t-48 120zM616 1454q0 70 48.5 118t121.5 48q72 0 121 -48t49 -118q0 -72 -49 -120t-121 -48q-74 0 -122 48t-48 120z" />
<glyph unicode="&#xa9;" horiz-adv-x="1558" d="M72 692q0 293 207.5 500t500.5 207t500 -208t207 -499q0 -293 -207 -500.5t-500 -207.5t-500.5 207.5t-207.5 500.5zM270 690q0 -223 144.5 -366.5t365.5 -143.5q219 0 363.5 143.5t144.5 366.5q0 219 -144.5 363.5t-363.5 144.5q-221 0 -365.5 -144.5t-144.5 -363.5z M453 690q2 154 99 250t261 96q100 0 184 -45v-192q-72 45 -163 45q-57 0 -102.5 -39t-47.5 -115q4 -72 46 -111.5t99 -39.5q88 0 168 49v-195q-80 -43 -196 -43q-141 0 -244.5 94.5t-103.5 245.5z" />
<glyph unicode="&#xaa;" horiz-adv-x="819" d="M20 1053q0 125 92.5 196.5t274.5 71.5h113v57q0 111 -150 111q-141 0 -264 -78v227q106 57 301 58q188 0 279.5 -80t91.5 -248v-565h-246v106q-53 -113 -221 -112q-127 0 -199 71.5t-72 184.5zM283 1063q0 -88 104 -88q51 0 82 33.5t31 89.5v65h-84q-63 0 -98 -27.5 t-35 -72.5z" />
<glyph unicode="&#xab;" horiz-adv-x="1212" d="M53 518l312 332h311l-299 -332l299 -332h-311zM504 518l311 332h311l-299 -332l299 -332h-311z" />
<glyph unicode="&#xac;" horiz-adv-x="1234" d="M92 616v238h1051v-575h-246v337h-805z" />
<glyph unicode="&#xad;" horiz-adv-x="731" d="M92 414v245h547v-245h-547z" />
<glyph unicode="&#xae;" horiz-adv-x="1007" d="M20 1128.5q0 210.5 136.5 346t347.5 135.5q209 0 346 -136.5t137 -345t-137 -344t-346 -135.5q-211 0 -347.5 134.5t-136.5 345zM147 1128.5q0 -161.5 97.5 -260t261.5 -98.5q162 0 259 98.5t97 260t-97 262t-259 100.5q-164 0 -261.5 -100.5t-97.5 -262zM356 901v485 h144q186 0 186 -153q0 -98 -78 -135l123 -197h-135l-102 176h-27v-176h-111zM467 1169h45q27 0 42 18.5t15 45.5q0 61 -65 61h-37v-125z" />
<glyph unicode="&#xaf;" horiz-adv-x="1024" d="M147 1333v203h730v-203h-730z" />
<glyph unicode="&#xb0;" horiz-adv-x="901" d="M61 1014q0 162 114 275.5t275.5 113.5t275.5 -113.5t114 -275.5t-114 -275.5t-275.5 -113.5t-275.5 113.5t-114 275.5zM270 1013.5q0 -73.5 53.5 -126.5t127 -53t127 53t53.5 126.5t-53.5 127t-127 53.5t-127 -53.5t-53.5 -127z" />
<glyph unicode="&#xb1;" horiz-adv-x="1206" d="M92 57v246h1022v-246h-1022zM92 668v245h373v285h274v-285h375v-245h-375v-287h-274v287h-373z" />
<glyph unicode="&#xb2;" horiz-adv-x="747" d="M72 803v158q147 106 247.5 220.5t100.5 204.5q0 104 -125 105q-96 0 -203 -76v215q106 68 240 68q141 0 228 -75t87 -206q0 -236 -303 -430h332v-184h-604z" />
<glyph unicode="&#xb3;" horiz-adv-x="722" d="M72 850v192q117 -61 231 -61q57 0 91 26.5t34 65.5q0 84 -174 84h-31v182h29q158 0 158 84t-107 84q-104 0 -199 -71v206q96 55 220 56q145 0 229 -68.5t84 -179.5q0 -80 -44 -132t-122 -69q78 -8 129 -61t51 -144q0 -113 -85 -181t-228 -68q-164 0 -266 55z" />
<glyph unicode="&#xb4;" horiz-adv-x="1024" d="M274 1272l177 362h299l-228 -362h-248z" />
<glyph unicode="&#xb5;" horiz-adv-x="1198" d="M123 -369v1407h299v-626q0 -88 51 -135.5t129 -47.5q90 0 132 58.5t42 201.5v549h299v-1038h-299v123q-70 -131 -213 -131q-74 0 -141 28v-389h-299z" />
<glyph unicode="&#xb6;" horiz-adv-x="1212" d="M20 1018q0 152 112 257t343 105h189v-1683h-228v952q-199 0 -307.5 107.5t-108.5 261.5zM852 -303l2 1683h225v-1683h-227z" />
<glyph unicode="&#xb7;" horiz-adv-x="548" d="M92 516q0 76 53.5 129t129 53t129 -53t53.5 -129t-53.5 -129t-129 -53t-129 53t-53.5 129z" />
<glyph unicode="&#xb8;" horiz-adv-x="1024" d="M328 -362q74 0 113.5 34.5t39.5 96.5q0 57 -53 127h231q35 -56 35 -152q0 -129 -93 -211t-273 -82v187z" />
<glyph unicode="&#xb9;" horiz-adv-x="571" d="M20 1333v201l275 156h174v-887h-211v657z" />
<glyph unicode="&#xba;" horiz-adv-x="905" d="M20 1233q0 205 118 336t317 131q207 0 318.5 -127t111.5 -324q0 -201 -113.5 -329.5t-316.5 -128.5q-209 0 -322 124.5t-113 317.5zM285 1243q0 -113 43 -184.5t129 -71.5q84 0 124 69.5t40 182.5q0 262 -170 262q-84 0 -125 -71.5t-41 -186.5z" />
<glyph unicode="&#xbb;" horiz-adv-x="1210" d="M84 186l299 332l-299 332h311l312 -332l-312 -332h-311zM535 186l299 332l-299 332h311l311 -332l-311 -332h-311z" />
<glyph unicode="&#xbf;" horiz-adv-x="937" d="M133 23q0 92 37 166.5t92 116.5t108.5 64.5t96.5 22.5l6 168h272l7 -309q-315 0 -316 -193q0 -74 44 -117.5t130 -43.5q134 0 267 88v-281q-123 -57 -314 -57q-193 0 -311.5 101t-118.5 274zM426 874.5q0 77.5 54.5 132t132 54.5t132 -54.5t54.5 -132t-54.5 -132 t-132 -54.5t-132 54.5t-54.5 132z" />
<glyph unicode="&#xc0;" horiz-adv-x="1413" d="M47 0l461 1380h397l461 -1380h-338l-84 283h-483l-84 -283h-330zM356 1839h299l176 -362h-247zM537 537h331l-14 49q-59 201 -97 342t-46 182l-9 41q-16 -113 -151 -565z" />
<glyph unicode="&#xc1;" horiz-adv-x="1413" d="M47 0l461 1380h397l461 -1380h-338l-84 283h-483l-84 -283h-330zM537 537h331l-14 49q-59 201 -97 342t-46 182l-9 41q-16 -113 -151 -565zM604 1477l176 362h299l-227 -362h-248z" />
<glyph unicode="&#xc2;" horiz-adv-x="1413" d="M47 0l461 1380h397l461 -1380h-338l-84 283h-483l-84 -283h-330zM262 1477l320 362h254l319 -362h-285l-161 196l-162 -196h-285zM537 537h331l-14 49q-59 201 -97 342t-46 182l-9 41q-16 -113 -151 -565z" />
<glyph unicode="&#xc3;" horiz-adv-x="1413" d="M47 0l461 1380h397l461 -1380h-338l-84 283h-483l-84 -283h-330zM305 1632q33 70 97.5 119t140.5 49q74 0 156.5 -35.5t121.5 -35.5q101 0 144 88l151 -125q-88 -174 -278 -174q-68 0 -141.5 35.5t-104.5 35.5q-51 0 -80 -17.5t-74 -70.5zM537 537h331l-14 49 q-59 201 -97 342t-46 182l-9 41q-16 -113 -151 -565z" />
<glyph unicode="&#xc4;" horiz-adv-x="1413" d="M47 0l461 1380h397l461 -1380h-338l-84 283h-483l-84 -283h-330zM276 1659q0 70 48.5 118t121.5 48q72 0 120 -48t48 -118q0 -72 -48 -120t-120 -48q-74 0 -122 48t-48 120zM537 537h331l-14 49q-59 201 -97 342t-46 182l-9 41q-16 -113 -151 -565zM825 1659 q0 70 48.5 118t121.5 48q72 0 121 -48t49 -118q0 -72 -49 -120t-121 -48q-74 0 -122 48t-48 120z" />
<glyph unicode="&#xc5;" horiz-adv-x="1413" d="M47 0l461 1380h397l461 -1380h-338l-84 283h-483l-84 -283h-330zM436 1732.5q0 114.5 82 196.5t196.5 82t196.5 -82t82 -196.5t-82 -196.5t-196.5 -82t-196.5 82t-82 196.5zM537 537h331l-14 49q-59 201 -97 342t-46 182l-9 41q-16 -113 -151 -565zM606 1739 q0 -47 31 -81t78 -34t77.5 34t30.5 81t-30.5 80.5t-77.5 33.5t-78 -33.5t-31 -80.5z" />
<glyph unicode="&#xc6;" horiz-adv-x="1925" d="M16 0l666 1380h1112v-252h-532v-313h475v-250h-475v-313h540v-252h-846v283h-469l-141 -283h-330zM616 537h340v720q-84 -217 -315 -671z" />
<glyph unicode="&#xc7;" horiz-adv-x="1255" d="M82 686q0 315 197.5 514t515.5 199q233 0 358 -78v-303q-154 94 -342 94q-166 0 -278.5 -115.5t-112.5 -310.5q0 -190 112.5 -302t290.5 -112q193 0 330 99v-310q-125 -78 -360 -77q-303 0 -507 195.5t-204 506.5zM551 -362q74 0 114 34.5t40 96.5q-1 57 -54 127h232 q35 -55 35 -152q0 -129 -93.5 -211t-273.5 -82v187z" />
<glyph unicode="&#xc8;" horiz-adv-x="1114" d="M133 0v1380h850v-252h-532v-313h475v-250h-475v-313h540v-252h-858zM233 1839h299l177 -362h-248z" />
<glyph unicode="&#xc9;" horiz-adv-x="1114" d="M133 0v1380h850v-252h-532v-313h475v-250h-475v-313h540v-252h-858zM455 1477l176 362h299l-228 -362h-247z" />
<glyph unicode="&#xca;" horiz-adv-x="1114" d="M111 1477l319 362h254l320 -362h-285l-162 196l-162 -196h-284zM133 0v1380h850v-252h-532v-313h475v-250h-475v-313h540v-252h-858z" />
<glyph unicode="&#xcb;" horiz-adv-x="1114" d="M113 1657q0 70 48 118t122 48q72 0 120 -48.5t48 -117.5q0 -72 -48 -120t-120 -48q-74 0 -122 48t-48 120zM133 0v1380h850v-252h-532v-313h475v-250h-475v-313h540v-252h-858zM662 1657q0 70 48 118t121 48q72 0 121 -48.5t49 -117.5q0 -72 -49 -120t-121 -48 q-74 0 -121.5 48t-47.5 120z" />
<glyph unicode="&#xcc;" horiz-adv-x="622" d="M-49 1839h299l176 -362h-248zM154 0v1380h315v-1380h-315z" />
<glyph unicode="&#xcd;" horiz-adv-x="622" d="M154 0v1380h315v-1380h-315zM193 1477l176 362h299l-228 -362h-247z" />
<glyph unicode="&#xce;" horiz-adv-x="622" d="M-131 1477l319 362h254l320 -362h-285l-162 196l-161 -196h-285zM154 0v1380h315v-1380h-315z" />
<glyph unicode="&#xcf;" horiz-adv-x="622" d="M-121 1659q0 70 48 118t122 48q72 0 120 -48t48 -118q0 -72 -48 -120t-120 -48q-74 0 -122 48t-48 120zM154 0v1380h315v-1380h-315zM428 1659q0 70 48 118t122 48q72 0 121 -48t49 -118q0 -72 -49 -120t-121 -48q-74 0 -122 48t-48 120z" />
<glyph unicode="&#xd0;" horiz-adv-x="1533" d="M133 551v254h135v575h475q311 0 510 -191.5t199 -475.5q0 -332 -195.5 -522.5t-517.5 -190.5h-471v551h-135zM592 258h143q190 0 294 119t104 336q0 184 -104.5 295.5t-295.5 111.5h-141v-315h282v-254h-282v-293z" />
<glyph unicode="&#xd1;" horiz-adv-x="1427" d="M133 0v1380h346l322 -571q68 -121 118 -226.5t64 -148.5l16 -45q-20 152 -20 420v571h315v-1380h-346l-330 571q-66 111 -115.5 218.5t-68.5 158.5l-16 51q31 -184 31 -428v-571h-316zM319 1632q33 70 97.5 119t140.5 49q74 0 157 -35.5t122 -35.5q98 0 143 88l151 -125 q-86 -174 -278 -174q-68 0 -141.5 35.5t-104.5 35.5q-51 0 -79.5 -17.5t-73.5 -70.5z" />
<glyph unicode="&#xd2;" horiz-adv-x="1507" d="M82 694q0 317 183.5 513t488.5 196q307 0 489 -194.5t182 -514.5q0 -317 -183 -512.5t-488 -195.5q-307 0 -489.5 194.5t-182.5 513.5zM420 694.5q0 -194.5 90 -308.5t243.5 -114t243.5 114t90 308.5t-90 308t-243.5 113.5t-243.5 -113.5t-90 -308zM422 1839h299 l176 -362h-248z" />
<glyph unicode="&#xd3;" horiz-adv-x="1507" d="M82 694q0 317 183.5 513t488.5 196q307 0 489 -194.5t182 -514.5q0 -317 -183 -512.5t-488 -195.5q-307 0 -489.5 194.5t-182.5 513.5zM420 694.5q0 -194.5 90 -308.5t243.5 -114t243.5 114t90 308.5t-90 308t-243.5 113.5t-243.5 -113.5t-90 -308zM637 1477l176 362h299 l-227 -362h-248z" />
<glyph unicode="&#xd4;" horiz-adv-x="1507" d="M82 694q0 317 183.5 513t488.5 196q307 0 489 -194.5t182 -514.5q0 -317 -183 -512.5t-488 -195.5q-307 0 -489.5 194.5t-182.5 513.5zM315 1477l320 362h254l319 -362h-284l-162 196l-162 -196h-285zM420 694.5q0 -194.5 90 -308.5t243.5 -114t243.5 114t90 308.5 t-90 308t-243.5 113.5t-243.5 -113.5t-90 -308z" />
<glyph unicode="&#xd5;" horiz-adv-x="1507" d="M82 694q0 317 183.5 513t488.5 196q307 0 489 -194.5t182 -514.5q0 -317 -183 -512.5t-488 -195.5q-307 0 -489.5 194.5t-182.5 513.5zM348 1630q33 70 97.5 119t140.5 49q74 0 156.5 -36t121.5 -36q99 1 144 89l151 -125q-86 -174 -278 -174q-68 0 -141.5 35.5 t-104.5 35.5q-51 0 -80 -17.5t-74 -70.5zM420 694.5q0 -194.5 90 -308.5t243.5 -114t243.5 114t90 308.5t-90 308t-243.5 113.5t-243.5 -113.5t-90 -308z" />
<glyph unicode="&#xd6;" horiz-adv-x="1507" d="M82 694q0 317 183.5 513t488.5 196q307 0 489 -194.5t182 -514.5q0 -317 -183 -512.5t-488 -195.5q-307 0 -489.5 194.5t-182.5 513.5zM328 1659q0 70 48 118t122 48q72 0 120 -48t48 -118q0 -72 -48.5 -120t-119.5 -48q-74 0 -122 48t-48 120zM420 694.5 q0 -194.5 90 -308.5t243.5 -114t243.5 114t90 308.5t-90 308t-243.5 113.5t-243.5 -113.5t-90 -308zM877 1659q0 70 48 118t122 48q72 0 121 -48t49 -118q0 -72 -49.5 -120t-120.5 -48q-74 0 -122 48t-48 120z" />
<glyph unicode="&#xd7;" horiz-adv-x="1085" d="M86 961l188 188l265 -262l260 260l194 -193l-262 -262l266 -264l-188 -188l-266 264l-260 -260l-195 192l262 262z" />
<glyph unicode="&#xd8;" horiz-adv-x="1462" d="M78 694q0 317 183 513t489 196q182 0 325 -72l51 70h297l-161 -219q160 -188 159 -488q0 -317 -183 -512.5t-488 -195.5q-176 0 -320 69l-51 -69h-299l160 217q-162 190 -162 491zM401 694q0 -131 37 -223l465 629q-72 33 -153 33q-160 0 -254.5 -119t-94.5 -320z M602 287q66 -31 148 -31q160 0 254 119t94 319q0 125 -35 217z" />
<glyph unicode="&#xd9;" horiz-adv-x="1368" d="M123 520v860h315v-858q0 -256 246 -256t246 266v848h315v-845q0 -270 -151.5 -412.5t-409.5 -142.5q-254 0 -407.5 141t-153.5 399zM348 1839h299l176 -362h-248z" />
<glyph unicode="&#xda;" horiz-adv-x="1368" d="M123 520v860h315v-858q0 -256 246 -256t246 266v848h315v-845q0 -270 -151.5 -412.5t-409.5 -142.5q-254 0 -407.5 141t-153.5 399zM588 1477l176 362h299l-227 -362h-248z" />
<glyph unicode="&#xdb;" horiz-adv-x="1368" d="M123 520v860h315v-858q0 -256 246 -256t246 266v848h315v-845q0 -270 -151.5 -412.5t-409.5 -142.5q-254 0 -407.5 141t-153.5 399zM233 1477l320 362h254l319 -362h-284l-162 196l-162 -196h-285z" />
<glyph unicode="&#xdc;" horiz-adv-x="1368" d="M123 520v860h315v-858q0 -256 246 -256t246 266v848h315v-845q0 -270 -151.5 -412.5t-409.5 -142.5q-254 0 -407.5 141t-153.5 399zM250 1657q0 70 48 118t122 48q72 0 120 -48.5t48 -117.5q0 -72 -48 -120t-120 -48q-74 0 -122 48t-48 120zM799 1657q0 70 48 118t122 48 q72 0 121 -48.5t49 -117.5q0 -72 -49.5 -120t-120.5 -48q-74 0 -122 48t-48 120z" />
<glyph unicode="&#xdd;" horiz-adv-x="1316" d="M27 1380h368l84 -200q66 -156 109 -266.5t55 -143.5l10 -33q20 92 181 443l90 200h366l-477 -872v-508h-315v506zM563 1477l176 362h299l-227 -362h-248z" />
<glyph unicode="&#xde;" horiz-adv-x="1153" d="M133 0v1380h316v-225h159q231 0 372.5 -128t141.5 -327q0 -227 -148.5 -351t-365.5 -124h-159v-225h-316zM449 475h135q109 0 164 59.5t55 153.5q0 88 -51.5 151.5t-167.5 63.5h-135v-428z" />
<glyph unicode="&#xdf;" horiz-adv-x="1224" d="M123 0v944q0 223 118.5 346t338.5 123q201 0 324.5 -103.5t123.5 -246.5q0 -78 -28.5 -139.5t-56.5 -102.5t-28 -71q0 -23 42 -58t92.5 -71.5t92.5 -115.5t42 -179q0 -156 -101.5 -250t-269.5 -94q-166 0 -240 49v252q104 -68 207 -68q55 0 90 28.5t35 78.5 q0 41 -30.5 77.5t-73.5 67.5t-87 63.5t-75 80.5t-31 108q0 78 58.5 173t58.5 144q0 117 -127 117q-184 0 -184 -190v-963h-291z" />
<glyph unicode="&#xe0;" horiz-adv-x="1056" d="M72 295q0 150 109.5 232.5t324.5 82.5h131v72q0 131 -174 131q-168 0 -311 -94v268q123 70 354 70q221 0 329.5 -95.5t108.5 -295.5v-666h-293v127q-66 -133 -258 -133q-152 0 -236.5 86t-84.5 215zM193 1497h299l176 -362h-248zM383 309q0 -104 121 -104q63 0 98 39 t35 106v76h-96q-76 0 -117 -33t-41 -84z" />
<glyph unicode="&#xe1;" horiz-adv-x="1056" d="M72 295q0 150 109.5 232.5t324.5 82.5h131v72q0 131 -174 131q-168 0 -311 -94v268q123 70 354 70q221 0 329.5 -95.5t108.5 -295.5v-666h-293v127q-66 -133 -258 -133q-152 0 -236.5 86t-84.5 215zM383 309q0 -104 121 -104q63 0 98 39t35 106v76h-96q-76 0 -117 -33 t-41 -84zM397 1135l176 362h299l-227 -362h-248z" />
<glyph unicode="&#xe2;" horiz-adv-x="1056" d="M72 295q0 150 109.5 232.5t324.5 82.5h131v72q0 131 -174 131q-168 0 -311 -94v268q123 70 354 70q221 0 329.5 -95.5t108.5 -295.5v-666h-293v127q-66 -133 -258 -133q-152 0 -236.5 86t-84.5 215zM78 1135l319 362h254l320 -362h-285l-162 196l-162 -196h-284zM383 309 q0 -104 121 -104q63 0 98 39t35 106v76h-96q-76 0 -117 -33t-41 -84z" />
<glyph unicode="&#xe3;" horiz-adv-x="1056" d="M72 295q0 150 109.5 232.5t324.5 82.5h131v72q0 131 -174 131q-168 0 -311 -94v268q123 70 354 70q221 0 329.5 -95.5t108.5 -295.5v-666h-293v127q-66 -133 -258 -133q-152 0 -236.5 86t-84.5 215zM119 1290q33 70 97.5 119t139.5 49q74 0 157 -36t122 -36q98 1 143 89 l152 -125q-86 -174 -279 -174q-68 0 -141.5 35.5t-103.5 35.5q-51 0 -80 -17.5t-74 -70.5zM383 309q0 -104 121 -104q63 0 98 39t35 106v76h-96q-76 0 -117 -33t-41 -84z" />
<glyph unicode="&#xe4;" horiz-adv-x="1056" d="M72 295q0 150 109.5 232.5t324.5 82.5h131v72q0 131 -174 131q-168 0 -311 -94v268q123 70 354 70q221 0 329.5 -95.5t108.5 -295.5v-666h-293v127q-66 -133 -258 -133q-152 0 -236.5 86t-84.5 215zM98 1317q0 70 48.5 118t121.5 48q72 0 120 -48.5t48 -117.5 q0 -72 -48 -120t-120 -48q-74 0 -122 48t-48 120zM383 309q0 -104 121 -104q63 0 98 39t35 106v76h-96q-76 0 -117 -33t-41 -84zM647 1317q0 70 48 118t122 48q72 0 121 -48.5t49 -117.5q0 -72 -49 -120t-121 -48q-74 0 -122 48t-48 120z" />
<glyph unicode="&#xe5;" horiz-adv-x="1056" d="M72 295q0 150 109.5 232.5t324.5 82.5h131v72q0 131 -174 131q-168 0 -311 -94v268q123 70 354 70q221 0 329.5 -95.5t108.5 -295.5v-666h-293v127q-66 -133 -258 -133q-152 0 -236.5 86t-84.5 215zM254 1390.5q0 114.5 82 196.5t196.5 82t196.5 -82t82 -196.5 t-82 -196.5t-196.5 -82t-196.5 82t-82 196.5zM383 309q0 -104 121 -104q63 0 98 39t35 106v76h-96q-76 0 -117 -33t-41 -84zM424 1397q0 -47 30.5 -81t78 -34t78 34t30.5 81t-30.5 80.5t-78 33.5t-78 -33.5t-30.5 -80.5z" />
<glyph unicode="&#xe6;" horiz-adv-x="1654" d="M82 295q0 150 109.5 232.5t324.5 82.5h131v72q0 131 -174 131q-168 0 -311 -94v268q123 70 334 70q111 0 191.5 -41t113.5 -111q47 68 133 106t188 38q209 0 330 -122t121 -364q-1 -47 -17 -162h-612q33 -86 108.5 -133t182.5 -47q158 0 274 88v-250q-109 -70 -311 -69 q-117 0 -227.5 47t-167.5 143q-33 -78 -121 -133t-236 -55q-174 0 -269 82t-95 221zM393 309q0 -104 121 -104q63 0 98 38.5t35 106.5v76h-96q-76 0 -117 -33t-41 -84zM934 614h360v23q-14 184 -159 184q-70 0 -126.5 -53t-74.5 -154z" />
<glyph unicode="&#xe7;" horiz-adv-x="960" d="M72 516q4 233 151.5 386t403.5 153q158 0 272 -60v-256q-109 68 -242 68q-125 0 -202.5 -75t-79.5 -216q8 -137 81.5 -213t194.5 -76q129 0 248 72v-250q-121 -66 -291 -65q-233 0 -384.5 148.5t-151.5 383.5zM389 -362q74 0 114 34.5t40 96.5q0 57 -54 127h232 q35 -56 35 -152q0 -129 -93.5 -211t-273.5 -82v187z" />
<glyph unicode="&#xe8;" horiz-adv-x="1091" d="M72 520q0 248 138 388.5t341 140.5q209 0 329.5 -122t120.5 -364q0 -47 -16 -162h-610q31 -86 106.5 -133t182.5 -47q157 0 274 88v-250q-106 -70 -326 -69q-256 0 -398 148.5t-142 381.5zM213 1497h299l176 -362h-248zM362 614h361v25q-14 182 -160 182q-72 0 -127 -52 t-74 -155z" />
<glyph unicode="&#xe9;" horiz-adv-x="1091" d="M72 520q0 248 138 388.5t341 140.5q209 0 329.5 -122t120.5 -364q0 -47 -16 -162h-610q31 -86 106.5 -133t182.5 -47q157 0 274 88v-250q-106 -70 -326 -69q-256 0 -398 148.5t-142 381.5zM362 614h361v25q-14 182 -160 182q-72 0 -127 -52t-74 -155zM461 1133l176 362 h299l-227 -362h-248z" />
<glyph unicode="&#xea;" horiz-adv-x="1091" d="M72 520q0 248 138 388.5t341 140.5q209 0 329.5 -122t120.5 -364q0 -47 -16 -162h-610q31 -86 106.5 -133t182.5 -47q157 0 274 88v-250q-106 -70 -326 -69q-256 0 -398 148.5t-142 381.5zM104 1135l320 362h254l319 -362h-284l-162 196l-162 -196h-285zM362 614h361v25 q-14 182 -160 182q-72 0 -127 -52t-74 -155z" />
<glyph unicode="&#xeb;" horiz-adv-x="1091" d="M72 520q0 248 138 388.5t341 140.5q209 0 329.5 -122t120.5 -364q0 -47 -16 -162h-610q31 -86 106.5 -133t182.5 -47q157 0 274 88v-250q-106 -70 -326 -69q-256 0 -398 148.5t-142 381.5zM137 1317q0 70 48 118t122 48q72 0 120 -48.5t48 -117.5q0 -72 -48 -120 t-120 -48q-74 0 -122 48t-48 120zM362 614h361v25q-14 182 -160 182q-72 0 -127 -52t-74 -155zM686 1317q0 70 48 118t122 48q72 0 121 -48.5t49 -117.5q0 -72 -49 -120t-121 -48q-74 0 -122 48t-48 120z" />
<glyph unicode="&#xec;" horiz-adv-x="565" d="M-88 1497h299l176 -362h-248zM133 0v1038h299v-1038h-299z" />
<glyph unicode="&#xed;" horiz-adv-x="565" d="M133 0v1038h299v-1038h-299zM174 1135l176 362h299l-227 -362h-248z" />
<glyph unicode="&#xee;" horiz-adv-x="565" d="M-162 1135l320 362h254l319 -362h-285l-161 196l-162 -196h-285zM133 0v1038h299v-1038h-299z" />
<glyph unicode="&#xef;" horiz-adv-x="565" d="M-160 1317q0 70 48.5 118t121.5 48q72 0 120 -48.5t48 -117.5q0 -72 -48 -120t-120 -48q-74 0 -122 48t-48 120zM133 0v1038h299v-1038h-299zM389 1317q0 70 48 118t122 48q72 0 121 -48.5t49 -117.5q0 -72 -49 -120t-121 -48q-74 0 -122 48t-48 120z" />
<glyph unicode="&#xf0;" horiz-adv-x="1140" d="M72 418q0 182 109.5 293.5t281.5 111.5q168 0 278 -104q-27 176 -127 330l-292 -144v166l198 96q-102 111 -258 213h377q57 -41 117 -96l231 113v-166l-133 -66q92 -129 141 -281.5t49 -291.5q0 -276 -126.5 -444t-368.5 -168q-223 0 -350 126.5t-127 311.5zM377 397 q0 -68 46 -109.5t124 -41.5t129 51t67 184q-86 90 -198 90q-80 0 -124 -46t-44 -128z" />
<glyph unicode="&#xf1;" d="M123 0v1038h299v-176q39 86 120 136.5t193 50.5q160 0 250 -95.5t90 -279.5v-674h-299v618q0 92 -43 140.5t-121 48.5q-82 0 -136 -64.5t-54 -193.5v-549h-299zM193 1290q33 70 97 119t140 49q74 0 157 -36t122 -36q98 1 143 89l152 -125q-86 -174 -279 -174 q-68 0 -141.5 35.5t-104.5 35.5q-51 0 -79.5 -17.5t-73.5 -70.5z" />
<glyph unicode="&#xf2;" horiz-adv-x="1161" d="M72 506q0 240 139 394.5t371 154.5q242 0 375 -149.5t133 -381.5q0 -236 -134 -388t-374 -152q-244 0 -377 146t-133 376zM250 1495h299l176 -362h-248zM383 518q0 -133 50 -218t151 -85q98 0 146 83t48 216q1 305 -198 305q-98 0 -147.5 -84t-49.5 -217z" />
<glyph unicode="&#xf3;" horiz-adv-x="1161" d="M72 506q0 240 139 394.5t371 154.5q242 0 375 -149.5t133 -381.5q0 -236 -134 -388t-374 -152q-244 0 -377 146t-133 376zM383 518q0 -133 50 -218t151 -85q98 0 146 83t48 216q1 305 -198 305q-98 0 -147.5 -84t-49.5 -217zM481 1133l176 362h299l-227 -362h-248z" />
<glyph unicode="&#xf4;" horiz-adv-x="1161" d="M72 506q0 240 139 394.5t371 154.5q242 0 375 -149.5t133 -381.5q0 -236 -134 -388t-374 -152q-244 0 -377 146t-133 376zM141 1133l320 362h254l319 -362h-284l-162 196l-162 -196h-285zM383 518q0 -133 50 -218t151 -85q98 0 146 83t48 216q1 305 -198 305 q-98 0 -147.5 -84t-49.5 -217z" />
<glyph unicode="&#xf5;" horiz-adv-x="1161" d="M72 506q0 240 139 394.5t371 154.5q242 0 375 -149.5t133 -381.5q0 -236 -134 -388t-374 -152q-244 0 -377 146t-133 376zM182 1290q33 70 97.5 119t140.5 49q74 0 156.5 -36t121.5 -36q101 1 144 89l151 -125q-88 -174 -278 -174q-68 0 -141.5 35.5t-104.5 35.5 q-51 0 -80 -17.5t-74 -70.5zM383 518q0 -133 50 -218t151 -85q98 0 146 83t48 216q1 305 -198 305q-98 0 -147.5 -84t-49.5 -217z" />
<glyph unicode="&#xf6;" horiz-adv-x="1161" d="M72 506q0 240 139 394.5t371 154.5q242 0 375 -149.5t133 -381.5q0 -236 -134 -388t-374 -152q-244 0 -377 146t-133 376zM160 1319q0 70 48 118t122 48q72 0 120 -48t48 -118q0 -72 -48.5 -120t-119.5 -48q-74 0 -122 48t-48 120zM383 518q0 -133 50 -218t151 -85 q98 0 146 83t48 216q1 305 -198 305q-98 0 -147.5 -84t-49.5 -217zM709 1319q0 70 48 118t122 48q72 0 121 -48t49 -118q0 -72 -49.5 -120t-120.5 -48q-74 0 -122 48t-48 120z" />
<glyph unicode="&#xf7;" horiz-adv-x="1206" d="M92 563v266h1022v-266h-1022zM438 335.5q0 63.5 46 110t109.5 46.5t110 -46.5t46.5 -110t-46.5 -109.5t-110 -46t-109.5 46t-46 109.5zM438 1056.5q0 63.5 46 109.5t109.5 46t110 -46t46.5 -109.5t-46.5 -109.5t-110 -46t-109.5 46t-46 109.5z" />
<glyph unicode="&#xf8;" horiz-adv-x="1150" d="M72 -16l116 163q-117 141 -116 359q0 240 139 394.5t371 154.5q121 0 227 -43l31 43h250l-119 -166q119 -139 119 -365q0 -236 -134.5 -388t-373.5 -152q-129 0 -230 45l-33 -45h-247zM346 518q0 -74 14 -131l320 444q-47 20 -100 21q-115 0 -174.5 -93t-59.5 -241z M481 207q43 -25 103 -25q117 0 174 92.5t57 239.5q0 80 -14 139z" />
<glyph unicode="&#xf9;" d="M113 344v694h299v-626q0 -182 159 -183q195 0 195 260v549h299v-1038h-299v166q-82 -174 -315 -174q-160 0 -249 89t-89 263zM244 1495h299l176 -362h-248z" />
<glyph unicode="&#xfa;" d="M113 344v694h299v-626q0 -182 159 -183q195 0 195 260v549h299v-1038h-299v166q-82 -174 -315 -174q-160 0 -249 89t-89 263zM487 1133l177 362h299l-228 -362h-248z" />
<glyph unicode="&#xfb;" d="M113 344v694h299v-626q0 -182 159 -183q195 0 195 260v549h299v-1038h-299v166q-82 -174 -315 -174q-160 0 -249 89t-89 263zM143 1135l320 362h254l319 -362h-284l-162 196l-162 -196h-285z" />
<glyph unicode="&#xfc;" d="M113 344v694h299v-626q0 -182 159 -183q195 0 195 260v549h299v-1038h-299v166q-82 -174 -315 -174q-160 0 -249 89t-89 263zM143 1317q0 70 48.5 118t121.5 48q72 0 120 -48.5t48 -117.5q0 -72 -48 -120t-120 -48q-74 0 -122 48t-48 120zM692 1317q0 70 48 118t122 48 q72 0 121 -48.5t49 -117.5q0 -72 -49 -120t-121 -48q-74 0 -122 48t-48 120z" />
<glyph unicode="&#xfd;" horiz-adv-x="1089" d="M10 1038h326l113 -323q43 -125 70.5 -215t33.5 -119l6 -29q23 82 111 363l102 323h307l-374 -1007q-162 -436 -494 -437q-63 0 -115 11v237q33 -8 70 -8q170 0 246 182zM459 1135l176 362h299l-227 -362h-248z" />
<glyph unicode="&#xfe;" horiz-adv-x="1251" d="M123 -383v1831h299v-569q109 172 313 172q201 0 323 -142.5t122 -386.5q0 -231 -118 -382.5t-327 -151.5q-211 0 -313 166v-537h-299zM422 530q0 -133 65.5 -212.5t167.5 -79.5q98 0 160 74.5t62 203.5q0 141 -62.5 214t-159.5 73q-94 0 -163.5 -72t-69.5 -201z" />
<glyph unicode="&#xff;" horiz-adv-x="1089" d="M10 1038h326l113 -323q43 -125 70.5 -215t33.5 -119l6 -29q23 82 111 363l102 323h307l-374 -1007q-162 -436 -494 -437q-63 0 -115 11v237q33 -8 70 -8q170 0 246 182zM121 1317q0 70 48 118t122 48q72 0 120 -48.5t48 -117.5q0 -72 -48.5 -120t-119.5 -48 q-74 0 -122 48t-48 120zM670 1317q0 70 48 118t122 48q72 0 121 -48.5t49 -117.5q0 -72 -49.5 -120t-120.5 -48q-74 0 -122 48t-48 120z" />
<glyph unicode="&#x152;" horiz-adv-x="2048" d="M82 694q0 319 178 514t483 195q180 0 324 -103v80h850v-252h-553v-313h496v-250h-496v-313h561v-252h-858v90q-143 -104 -324 -104q-305 0 -483 193.5t-178 514.5zM420 694.5q0 -194.5 86 -308.5t237.5 -114t237.5 114t86 308.5t-86 308t-237.5 113.5t-237.5 -113.5 t-86 -308z" />
<glyph unicode="&#x153;" horiz-adv-x="1800" d="M72 506q0 240 139 394.5t371 154.5q221 0 356 -148q141 141 334 142q209 0 329.5 -122t120.5 -364q0 -47 -16 -162h-610q31 -86 106.5 -133t181.5 -47q158 0 275 88v-250q-106 -70 -326 -69q-240 0 -391 151q-137 -158 -360 -157q-244 0 -377 146t-133 376zM383 518 q0 -133 50 -218t150.5 -85t155 84t54.5 215q0 133 -53.5 219t-159.5 86q-98 0 -147.5 -84t-49.5 -217zM1083 614h361q0 8 -1 22.5t-1 20.5q-18 164 -158 164q-72 0 -127.5 -52.5t-73.5 -154.5z" />
<glyph unicode="&#x178;" horiz-adv-x="1316" d="M27 1380h368l84 -200q66 -156 109 -266.5t55 -143.5l10 -33q20 92 181 443l90 200h366l-477 -872v-508h-315v506zM229 1657q0 70 48.5 118t121.5 48q72 0 120 -48.5t48 -117.5q0 -72 -48 -120t-120 -48q-74 0 -122 48t-48 120zM778 1657q0 70 48 118t122 48 q72 0 121 -48.5t49 -117.5q0 -72 -49 -120t-121 -48q-74 0 -122 48t-48 120z" />
<glyph unicode="&#x2c6;" horiz-adv-x="1024" d="M66 1272l319 362h254l319 -362h-284l-162 196l-162 -196h-284z" />
<glyph unicode="&#x2dc;" horiz-adv-x="1024" d="M106 1386q33 70 97.5 119t140.5 49q74 0 157 -35.5t122 -35.5q98 0 143 88l152 -125q-86 -174 -279 -174q-68 0 -141.5 35.5t-104.5 35.5q-51 0 -79.5 -17t-73.5 -71z" />
<glyph unicode="&#x2000;" horiz-adv-x="1005" />
<glyph unicode="&#x2001;" horiz-adv-x="2011" />
<glyph unicode="&#x2002;" horiz-adv-x="1005" />
<glyph unicode="&#x2003;" horiz-adv-x="2011" />
<glyph unicode="&#x2004;" horiz-adv-x="670" />
<glyph unicode="&#x2005;" horiz-adv-x="502" />
<glyph unicode="&#x2006;" horiz-adv-x="335" />
<glyph unicode="&#x2007;" horiz-adv-x="335" />
<glyph unicode="&#x2008;" horiz-adv-x="251" />
<glyph unicode="&#x2009;" horiz-adv-x="402" />
<glyph unicode="&#x200a;" horiz-adv-x="111" />
<glyph unicode="&#x2010;" horiz-adv-x="731" d="M92 414v245h547v-245h-547z" />
<glyph unicode="&#x2011;" horiz-adv-x="731" d="M92 414v245h547v-245h-547z" />
<glyph unicode="&#x2012;" horiz-adv-x="731" d="M92 414v245h547v-245h-547z" />
<glyph unicode="&#x2013;" horiz-adv-x="1136" d="M92 440v219h952v-219h-952z" />
<glyph unicode="&#x2014;" horiz-adv-x="1712" d="M92 446v220h1528v-220h-1528z" />
<glyph unicode="&#x2018;" horiz-adv-x="546" d="M55 887l279 534h258l-207 -534h-330z" />
<glyph unicode="&#x2019;" horiz-adv-x="546" d="M57 887l207 534h330l-279 -534h-258z" />
<glyph unicode="&#x201a;" horiz-adv-x="546" d="M-14 -260l207 534h329l-278 -534h-258z" />
<glyph unicode="&#x201c;" horiz-adv-x="925" d="M55 887l289 534h248l-213 -534h-324zM475 887l248 534h248l-197 -534h-299z" />
<glyph unicode="&#x201d;" horiz-adv-x="925" d="M57 887l197 534h299l-248 -534h-248zM436 887l213 534h324l-289 -534h-248z" />
<glyph unicode="&#x201e;" horiz-adv-x="925" d="M-4 -260l197 534h299l-248 -534h-248zM375 -260l213 534h323l-288 -534h-248z" />
<glyph unicode="&#x2022;" horiz-adv-x="870" d="M164 729q0 117 76.5 194.5t193.5 77.5q115 0 194 -78.5t79 -193.5t-78 -193.5t-193 -78.5q-117 0 -194.5 77.5t-77.5 194.5z" />
<glyph unicode="&#x2026;" horiz-adv-x="1921" d="M123 166q0 76 53 129t129 53t129 -53t53 -129t-53 -129t-129 -53t-129 53t-53 129zM778 166q0 76 53.5 129t129 53t129 -53t53.5 -129t-53.5 -129t-129 -53t-129 53t-53.5 129zM1434 166q0 76 53 129t129 53t129 -53t53 -129t-53 -129t-129 -53t-129 53t-53 129z" />
<glyph unicode="&#x202f;" horiz-adv-x="402" />
<glyph unicode="&#x2039;" horiz-adv-x="759" d="M53 518l312 332h311l-299 -332l299 -332h-311z" />
<glyph unicode="&#x203a;" horiz-adv-x="759" d="M84 186l299 332l-299 332h311l312 -332l-312 -332h-311z" />
<glyph unicode="&#x205f;" horiz-adv-x="502" />
<glyph unicode="&#x20ac;" horiz-adv-x="1273" d="M82 412v184h156q-2 20 -2 59q0 49 2 72h-156v184h188q63 213 225 330t367 117q201 0 330 -78v-301q-121 98 -281 98q-201 0 -299 -166h365v-184h-422q-4 -49 -4 -74q0 -39 2 -57h424v-184h-367q92 -154 291 -154q168 0 291 100v-303q-131 -72 -320 -71 q-219 0 -377.5 115.5t-222.5 312.5h-190z" />
<glyph unicode="&#x2122;" horiz-adv-x="1542" d="M20 1212v168h535v-168h-170v-534h-192v534h-173zM625 678l59 702h203l74 -190q37 -96 60 -167t28 -93l6 -25q18 68 100 285l74 190h203l71 -702h-186l-21 229q-6 66 -6 130.5t4 97.5l2 32q-20 -115 -77 -262l-82 -219h-160l-80 219q-23 59 -41 125t-25 100l-8 37 q2 -14 4 -36.5t6.5 -95t-4.5 -130.5l-18 -227h-186z" />
<glyph unicode="&#x25fc;" horiz-adv-x="1034" d="M0 0v1034h1034v-1034h-1034z" />
<glyph unicode="&#xfb01;" horiz-adv-x="1177" d="M61 819v219h136v39q0 188 105.5 293t291.5 105q201 0 387 -86v-242q-195 88 -338 88q-76 0 -112.5 -35t-36.5 -123v-39h596v-1038h-299v819h-297v-819h-297v819h-136z" />
<glyph unicode="&#xfb02;" horiz-adv-x="1214" d="M61 819v219h136v39q0 188 105.5 293t291.5 105q225 0 498 -129v-1346h-299v1214q-82 20 -140 21q-82 0 -120.5 -33t-38.5 -125v-39h194v-219h-194v-819h-297v819h-136z" />
<glyph unicode="&#xfb03;" horiz-adv-x="1986" d="M61 819v219h136v39q0 188 105.5 293t291.5 105q178 0 340 -72q100 72 254 72q201 0 387 -86v-242q-195 88 -338 88q-76 0 -113 -35t-37 -123v-39h596v-1038h-299v819h-297v-819h-296v819h-297v-819h-297v819h-136zM494 1038h297v39q0 72 14 127q-104 31 -162 31 q-76 0 -112.5 -35t-36.5 -123v-39z" />
<glyph unicode="&#xfb04;" horiz-adv-x="1808" d="M61 819v219h136v39q0 188 105.5 293t291.5 105q178 0 340 -72q100 72 254 72q225 0 498 -129v-1346h-300v1214q-82 20 -139 21q-82 0 -121 -33t-39 -125v-39h195v-219h-195v-819h-296v819h-297v-819h-297v819h-136zM494 1038h297v39q0 72 14 127q-104 31 -162 31 q-76 0 -112.5 -35t-36.5 -123v-39z" />
</font>
</defs>
</svg>
